HIERARCHY
ROOT Hips
{
	OFFSET -0.179506 -22.333345 2.821913
	CHANNELS 6 Xposition Yposition Zposition Zrotation Yrotation Xrotation 
	JOINT LeftUpLeg
	{
		OFFSET 6.951974 -9.140623 -0.681533
		CHANNELS 3 Zrotation Yrotation Xrotation
		JOINT LeftLeg
		{
			OFFSET 3.427654 -37.519855 -0.449580
			CHANNELS 3 Zrotation Yrotation Xrotation
			JOINT LeftFoot
			{
				OFFSET -1.359570 -39.796059 -4.369333
				CHANNELS 3 Zrotation Yrotation Xrotation
				JOINT LeftToe
				{
					OFFSET 2.635814 -5.579078 11.928840
					CHANNELS 3 Zrotation Yrotation Xrotation
					End Site
					{
						OFFSET 0.000000 0.000000 0.000000
					}
				}
			}
		}
	}
	JOINT RightUpLeg
	{
		OFFSET -6.767048 -9.052170 -0.431982
		CHANNELS 3 Zrotation Yrotation Xrotation
		JOINT RightLeg
		{
			OFFSET -3.829005 -38.256897 -0.885003
			CHANNELS 3 Zrotation Yrotation Xrotation
			JOINT RightFoot
			{
				OFFSET 1.577377 -39.841461 -4.231180
				CHANNELS 3 Zrotation Yrotation Xrotation
				JOINT RightToe
				{
					OFFSET -2.537174 -4.814398 12.334795
					CHANNELS 3 Zrotation Yrotation Xrotation
					End Site
					{
						OFFSET 0.000000 0.000000 0.000000
					}
				}
			}
		}
	}
	JOINT Spine
	{
		OFFSET -0.253288 10.896323 -2.669631
		CHANNELS 3 Zrotation Yrotation Xrotation
		JOINT Spine1
		{
			OFFSET 0.548704 13.518043 0.109247
			CHANNELS 3 Zrotation Yrotation Xrotation
			JOINT Spine2
			{
				OFFSET 0.145701 5.292222 2.542457
				CHANNELS 3 Zrotation Yrotation Xrotation
				JOINT Neck
				{
					OFFSET -0.277840 21.387037 -4.285703
					CHANNELS 3 Zrotation Yrotation Xrotation
					JOINT Head
					{
						OFFSET 0.515184 6.496960 5.134897
						CHANNELS 3 Zrotation Yrotation Xrotation
						End Site
						{
							OFFSET 0.000000 0.000000 0.000000
						}
					}
				}
				JOINT LeftShoulder
				{
					OFFSET 7.884473 12.174932 -3.408961
					CHANNELS 3 Zrotation Yrotation Xrotation
					JOINT LeftArm
					{
						OFFSET 9.097692 3.046888 -0.886815
						CHANNELS 3 Zrotation Yrotation Xrotation
						JOINT LeftForeArm
						{
							OFFSET 25.961220 -1.277207 -2.745643
							CHANNELS 3 Zrotation Yrotation Xrotation
							JOINT LeftHand
							{
								OFFSET 24.923361 0.898606 -0.117091
								CHANNELS 3 Zrotation Yrotation Xrotation
								End Site
								{
									OFFSET 0.000000 0.000000 0.000000
								}
							}
						}
					}
				}
				JOINT RightShoulder
				{
					OFFSET -8.175920 11.883285 -3.861528
					CHANNELS 3 Zrotation Yrotation Xrotation
					JOINT RightArm
					{
						OFFSET -9.601238 3.255117 -0.914307
						CHANNELS 3 Zrotation Yrotation Xrotation
						JOINT RightForeArm
						{
							OFFSET -25.374195 -1.332924 -2.140099
							CHANNELS 3 Zrotation Yrotation Xrotation
							JOINT RightHand
							{
								OFFSET -25.529810 0.777228 -0.555919
								CHANNELS 3 Zrotation Yrotation Xrotation
								End Site
								{
									OFFSET 0.000000 0.000000 0.000000
								}
							}
						}
					}
				}
			}
		}
	}
}
MOTION
Frames: 10
Frame Time: 0.033333
-13.004480 97.867874 -10.231030 111.939018 -77.152974 -101.276531 15.762404 2.612525 -50.079159 -11.575945 6.156212 58.366100 -2.384571 11.295033 -10.134867 2.193918 -1.508406 -2.286229 -22.589152 -15.623105 -49.603474 -1.227472 -10.441174 70.837373 0.633310 -10.740189 -32.084504 1.733870 0.902640 -3.090257 6.257170 3.491266 50.953831 -10.780634 6.683494 -12.316862 -2.459407 8.306115 2.137339 -5.411733 -17.867149 -16.839233 4.999084 -16.365508 -25.336074 -18.064334 -8.581824 -4.547624 -28.390456 7.707461 -1.528648 4.253397 -18.476851 -17.930092 3.742236 -6.950941 -12.305618 0.365485 34.303082 -1.603227 15.533972 31.265321 -6.114030 4.758303 45.258774 6.083355 6.440758 5.559265 1.250524 
-13.771460 97.180618 -10.931231 129.811828 -72.739464 -120.898924 15.659422 3.696290 -47.802955 -12.029416 6.747864 62.602456 -3.181080 13.262777 -10.911717 2.101135 -1.508573 -2.253432 -23.442617 -13.543023 -51.232328 -0.490127 -8.043527 73.691122 0.650646 -8.535833 -32.797139 1.762401 1.020257 -3.060323 6.447137 0.763696 52.898456 -9.499369 6.042709 -12.517148 -1.794185 7.214784 2.129287 -5.137418 -19.303090 -15.434879 6.141992 -16.773740 -25.655171 -18.728660 -11.279796 -4.522054 -26.479913 4.211239 -0.529919 7.291711 -27.671096 -17.734959 5.376766 -8.639073 -7.575366 1.102221 34.808544 -1.173447 13.462984 27.128354 -5.858479 9.437917 47.778790 9.160854 6.078851 7.590276 2.596341 
-14.726238 96.808006 -11.666806 142.462352 -65.634531 -135.876242 14.920137 4.251435 -42.483408 -11.820743 7.573258 64.547698 -3.949082 16.740550 -13.728950 1.585288 -1.230452 -1.817671 -23.778828 -11.862866 -51.094862 0.910022 -5.268929 73.587192 -0.668834 -6.197826 -35.959921 1.804011 0.827966 -3.051598 6.411514 -0.785679 51.287976 -7.929663 5.214292 -12.867482 -1.000115 6.081003 3.096939 -4.153029 -18.778402 -13.412445 7.571985 -16.078354 -24.911044 -18.347877 -13.686408 -4.179183 -21.515194 1.750737 -0.738232 7.649770 -32.113533 -17.523767 5.205238 -8.776495 -4.602867 3.355188 32.848450 0.288302 11.040218 20.635947 -5.376199 12.033054 51.979303 10.513880 5.767589 8.811425 1.479757 
-17.287821 96.754128 -12.080004 153.116359 -57.492323 -148.752167 14.484358 6.092489 -35.698134 -10.482377 8.479265 67.542082 -4.417346 19.528005 -16.349748 1.148035 -0.884969 -1.630432 -23.221092 -9.402930 -50.134399 3.427523 -2.369867 73.455238 -1.367507 -4.330687 -37.222631 1.653228 0.829795 -3.315623 5.343854 -2.281456 47.413857 -5.372352 3.534764 -11.639022 -0.376342 4.113772 3.896763 -2.900528 -15.868777 -11.315875 8.426745 -15.613058 -25.673397 -16.036212 -15.078557 -4.609805 -12.298553 1.051015 -3.339770 5.799504 -32.575265 -16.651065 2.941284 -8.017814 1.166499 5.886637 29.283656 1.109130 5.706210 13.883858 -6.856607 9.931087 55.928375 7.166952 5.224103 10.147797 -2.137334 
-18.090839 97.356361 -13.867521 157.024429 -50.750207 -155.893142 14.153962 6.984499 -29.134190 -11.461162 6.632172 67.902210 -5.577582 21.397928 -16.023418 0.846414 -1.003530 -1.185841 -22.083660 -6.337315 -48.116819 6.357385 0.789245 73.847747 -1.598534 -5.526525 -35.999387 1.894122 0.907996 -3.460790 4.122778 -4.316176 43.431579 -2.120946 1.009998 -11.352591 0.301301 1.432916 4.027381 -1.505901 -15.094445 -9.745942 9.754694 -13.672294 -26.017195 -12.537706 -15.020627 -5.125229 -3.025730 0.536870 -6.731508 4.605511 -30.575816 -20.180527 2.301626 -9.178449 2.872333 4.396199 23.785107 -2.125470 0.128950 7.524373 -8.540935 -2.205261 61.530713 -5.991185 3.382884 11.919442 -4.351417 
-19.938658 99.236206 -15.068563 159.488589 -44.542447 -159.426926 14.592023 8.796094 -22.562997 -13.188484 5.306401 64.655170 -4.967179 18.251161 -19.802306 0.698801 -1.141078 -1.006818 -21.362603 -3.659034 -43.436420 9.239093 5.548817 68.123988 -1.203645 -8.486373 -32.450760 1.818510 0.839272 -3.797014 3.042351 -6.745477 36.854092 0.497056 -1.210925 -13.226544 0.125977 -1.575645 4.591202 0.472143 -17.135595 -8.642904 11.177143 -13.249253 -24.937596 -7.389967 -13.675907 -5.837088 6.807519 1.425375 -10.238214 2.700830 -28.770674 -22.507943 -0.438135 -9.517018 1.926082 0.387515 16.402792 -6.324503 -7.060891 -0.390387 -10.442411 -13.149676 59.788906 -20.365654 5.222686 11.872381 -5.739167 
-21.621216 103.120010 -17.123735 164.196164 -35.639068 -164.159181 14.693321 10.547130 -15.185360 -12.686780 4.624464 59.068792 -4.121368 17.148675 -17.495281 0.507298 -1.104285 -0.967275 -19.125331 -1.317244 -37.197180 10.918711 9.803574 56.331933 1.270962 -8.486939 -19.626771 1.469567 0.819392 -3.877414 2.647670 -8.715045 29.183214 2.246376 -3.175575 -15.139733 -0.165186 -3.917917 5.420337 1.520384 -19.095076 -5.824736 11.831937 -13.700639 -21.601150 -2.382513 -12.830030 -6.408100 12.383134 -0.034825 -12.462037 0.768310 -26.264443 -21.337999 -3.128926 -10.760494 4.578687 -1.975510 11.011832 -8.573124 -10.501743 -4.247470 -12.233806 -8.760459 47.383083 -20.535654 6.581710 11.834424 -3.995848 
-22.793079 108.139679 -19.987957 169.239112 -22.958153 -169.608849 12.221471 11.062106 -9.825816 -11.071615 5.438468 54.753027 -3.753685 17.979949 -8.677260 0.068885 -1.242741 -0.860663 -15.858697 -0.443534 -30.914714 8.497104 11.784944 39.614933 6.811647 -7.600086 -1.701351 0.850525 1.021849 -3.453399 2.439289 -8.870109 23.166225 3.287420 -4.467653 -16.466230 0.018233 -5.058234 6.342207 1.898747 -21.397882 -3.616160 13.139708 -13.670878 -18.178981 1.538417 -11.887596 -7.485920 14.066469 -2.745486 -14.831158 -0.495772 -24.421916 -17.710722 -1.928366 -11.670694 6.987142 -3.705395 7.189923 -8.999407 -11.947282 -5.220324 -14.101132 -3.084521 35.107234 -18.735464 4.777814 11.222529 -1.657558 
-22.860134 113.433960 -22.748245 172.135501 -7.811643 -174.006728 7.403515 9.004180 -9.390655 -10.208603 6.522069 55.854895 -2.200059 16.526609 0.523085 -0.589868 -1.081240 -0.901038 -11.305415 -1.072908 -26.887601 6.208483 9.509166 28.775474 10.513010 -8.453772 12.505307 -0.036944 0.991235 -3.288814 1.720955 -6.902426 19.698175 4.249682 -4.958967 -16.392558 0.492863 -5.015352 6.300122 0.831406 -23.127345 -0.171630 15.060093 -12.829902 -16.024659 2.815194 -10.957817 -7.972108 14.745108 -4.944731 -16.091737 0.754181 -26.435839 -17.963113 -1.618684 -11.826430 6.026679 -3.797886 4.720802 -7.939376 -12.531770 -6.833337 -13.814625 -2.605933 27.665166 -21.304065 5.658788 10.475996 -0.422385 
-21.767000 117.975281 -24.993282 175.556461 12.112262 -176.126772 2.813635 4.925458 -15.863597 -9.480435 10.594032 65.881785 -1.749079 13.537496 5.742065 -1.108288 -0.756807 -0.438740 -5.892520 -1.780118 -27.489080 7.924358 2.161517 36.125896 10.609337 -7.334549 17.238809 -0.732299 0.693317 -2.766140 1.916703 -3.715177 18.812840 5.110579 -4.235147 -14.733420 0.687467 -3.503363 5.413438 1.018194 -23.751405 4.360170 17.175399 -12.964242 -14.518300 4.433476 -11.136823 -8.483968 15.313218 -6.308351 -17.498671 3.008201 -28.979928 -21.448992 -1.909193 -11.215094 1.182504 -3.423783 5.978138 -5.481835 -11.460113 -6.993280 -14.332039 -1.515919 21.583736 -25.111395 4.650246 10.147109 -5.033393 
